<svg width="30" height="30" viewBox="0 0 30 30" fill="none" xmlns="http://www.w3.org/2000/svg">
<g clip-path="url(#clip0_158_78)">
<path d="M7.75078 26.2504H2.30859V8.725H7.75078V26.2504ZM5.02676 6.33438C3.28652 6.33438 1.875 4.89297 1.875 3.15273C1.875 2.31684 2.20706 1.51517 2.79813 0.924105C3.3892 0.333036 4.19086 0.000976562 5.02676 0.000976562C5.86266 0.000976562 6.66432 0.333036 7.25539 0.924105C7.84646 1.51517 8.17852 2.31684 8.17852 3.15273C8.17852 4.89297 6.76641 6.33438 5.02676 6.33438ZM28.1191 26.2504H22.6887V17.7191C22.6887 15.6859 22.6477 13.0785 19.8592 13.0785C17.0297 13.0785 16.5961 15.2875 16.5961 17.5727V26.2504H11.1598V8.725H16.3793V11.1156H16.4555C17.182 9.73867 18.9568 8.28555 21.6047 8.28555C27.1125 8.28555 28.125 11.9125 28.125 16.6234V26.2504H28.1191Z" fill="white"/>
</g>
<defs>
<clipPath id="clip0_158_78">
<rect width="26.25" height="30" fill="white" transform="translate(1.875)"/>
</clipPath>
</defs>
</svg>
